<svg width="108" height="22" viewBox="0 0 108 22" fill="none" xmlns="http://www.w3.org/2000/svg">
<path d="M1.47298e-05 21.3V-1.33514e-05H7.74002L12.24 13.53L16.74 -1.33514e-05H24.48V21.3H18.6V9.29999L14.31 21.21H10.14L5.88002 9.29999V21.3H1.47298e-05ZM32.8699 21.66C31.1699 21.66 29.7699 21.27 28.6699 20.49C27.5699 19.71 27.0199 18.62 27.0199 17.22C27.0199 15.78 27.4899 14.68 28.4299 13.92C29.3899 13.14 30.7499 12.56 32.5099 12.18L37.3699 11.16C37.3699 10.32 37.1899 9.67999 36.8299 9.23999C36.4699 8.79999 35.9699 8.57999 35.3299 8.57999C34.6499 8.57999 34.1199 8.74999 33.7399 9.08999C33.3799 9.40999 33.1499 9.88999 33.0499 10.53L27.2899 10.35C27.6099 8.38999 28.4599 6.96999 29.8399 6.08999C31.2199 5.18999 33.0499 4.73999 35.3299 4.73999C37.9699 4.73999 39.9399 5.30999 41.2399 6.44999C42.5399 7.58999 43.1899 9.31999 43.1899 11.64V16.38C43.1899 16.9 43.2699 17.24 43.4299 17.4C43.6099 17.56 43.8499 17.64 44.1499 17.64H44.4799V21.3C44.2999 21.36 44.0099 21.41 43.6099 21.45C43.2099 21.51 42.8199 21.54 42.4399 21.54C41.8599 21.54 41.2599 21.44 40.6399 21.24C40.0199 21.04 39.4999 20.66 39.0799 20.1C38.6599 19.52 38.4499 18.68 38.4499 17.58L38.8699 18.06C38.6499 18.8 38.2899 19.44 37.7899 19.98C37.2899 20.52 36.6299 20.94 35.8099 21.24C35.0099 21.52 34.0299 21.66 32.8699 21.66ZM34.4899 18C35.0299 18 35.5099 17.89 35.9299 17.67C36.3699 17.45 36.7199 17.12 36.9799 16.68C37.2399 16.22 37.3699 15.64 37.3699 14.94V14.4L34.7299 15.06C34.2299 15.18 33.8099 15.38 33.4699 15.66C33.1499 15.92 32.9899 16.26 32.9899 16.68C32.9899 17.1 33.1099 17.43 33.3499 17.67C33.5899 17.89 33.9699 18 34.4899 18ZM52.8417 21.3C51.0217 21.3 49.6917 20.88 48.8517 20.04C48.0117 19.18 47.5917 17.82 47.5917 15.96V1.28999H53.4117V15.12C53.4117 15.92 53.5717 16.47 53.8917 16.77C54.2317 17.05 54.7417 17.19 55.4217 17.19H57.6417V21.3H52.8417ZM44.8317 9.20999V5.09999H57.6417V9.20999H44.8317ZM65.1117 21.3C63.2917 21.3 61.9617 20.88 61.1217 20.04C60.2817 19.18 59.8617 17.82 59.8617 15.96V1.28999H65.6817V15.12C65.6817 15.92 65.8417 16.47 66.1617 16.77C66.5017 17.05 67.0117 17.19 67.6917 17.19H69.9117V21.3H65.1117ZM57.1017 9.20999V5.09999H69.9117V9.20999H57.1017ZM79.8403 21.66C78.1003 21.66 76.5803 21.31 75.2803 20.61C73.9803 19.91 72.9703 18.93 72.2503 17.67C71.5303 16.39 71.1703 14.9 71.1703 13.2C71.1703 11.5 71.5303 10.02 72.2503 8.75999C72.9703 7.49999 73.9803 6.51999 75.2803 5.81999C76.5803 5.09999 78.1003 4.73999 79.8403 4.73999C81.5803 4.73999 83.0803 5.10999 84.3403 5.84999C85.6203 6.56999 86.6003 7.59999 87.2803 8.93999C87.9603 10.28 88.3003 11.86 88.3003 13.68V14.7H77.1703C77.2103 15.68 77.4803 16.41 77.9803 16.89C78.5003 17.35 79.1603 17.58 79.9603 17.58C80.5403 17.58 81.0303 17.47 81.4303 17.25C81.8503 17.03 82.1503 16.64 82.3303 16.08L88.0903 16.38C87.6503 18.12 86.6903 19.44 85.2103 20.34C83.7303 21.22 81.9403 21.66 79.8403 21.66ZM77.1703 11.58H82.4803C82.4603 10.64 82.2103 9.92999 81.7303 9.44999C81.2503 8.94999 80.6203 8.69999 79.8403 8.69999C79.1003 8.69999 78.4803 8.95999 77.9803 9.47999C77.5003 9.99999 77.2303 10.7 77.1703 11.58ZM98.5903 21.66C96.8503 21.66 95.3303 21.31 94.0303 20.61C92.7303 19.91 91.7203 18.93 91.0003 17.67C90.2803 16.39 89.9203 14.9 89.9203 13.2C89.9203 11.5 90.2803 10.02 91.0003 8.75999C91.7203 7.49999 92.7303 6.51999 94.0303 5.81999C95.3303 5.09999 96.8503 4.73999 98.5903 4.73999C100.33 4.73999 101.83 5.10999 103.09 5.84999C104.37 6.56999 105.35 7.59999 106.03 8.93999C106.71 10.28 107.05 11.86 107.05 13.68V14.7H95.9203C95.9603 15.68 96.2303 16.41 96.7303 16.89C97.2503 17.35 97.9103 17.58 98.7103 17.58C99.2903 17.58 99.7803 17.47 100.18 17.25C100.6 17.03 100.9 16.64 101.08 16.08L106.84 16.38C106.4 18.12 105.44 19.44 103.96 20.34C102.48 21.22 100.69 21.66 98.5903 21.66ZM95.9203 11.58H101.23C101.21 10.64 100.96 9.92999 100.48 9.44999C100 8.94999 99.3703 8.69999 98.5903 8.69999C97.8503 8.69999 97.2303 8.95999 96.7303 9.47999C96.2503 9.99999 95.9803 10.7 95.9203 11.58Z" fill="white"/>
</svg>
