<svg width="70" height="15" viewBox="0 0 70 15" fill="none" xmlns="http://www.w3.org/2000/svg">
<path d="M7.38001 14.76C6.36667 14.76 5.41334 14.5734 4.52001 14.2C3.62667 13.8134 2.84001 13.28 2.16001 12.6C1.48001 11.92 0.946673 11.1334 0.560006 10.24C0.186673 9.34669 6.13928e-06 8.39335 6.13928e-06 7.38002C6.13928e-06 6.35335 0.186673 5.40002 0.560006 4.52002C0.946673 3.62669 1.48001 2.84002 2.16001 2.16002C2.84001 1.48002 3.62667 0.953352 4.52001 0.580019C5.41334 0.193353 6.36667 1.93119e-05 7.38001 1.93119e-05C8.40667 1.93119e-05 9.36001 0.193353 10.24 0.580019C11.1333 0.953352 11.92 1.48002 12.6 2.16002C13.28 2.84002 13.8067 3.62669 14.18 4.52002C14.5667 5.40002 14.76 6.35335 14.76 7.38002C14.76 8.39335 14.5667 9.34669 14.18 10.24C13.8067 11.1334 13.28 11.92 12.6 12.6C11.92 13.28 11.1333 13.8134 10.24 14.2C9.36001 14.5734 8.40667 14.76 7.38001 14.76ZM7.38001 13.16C8.16667 13.16 8.90001 13.0134 9.58001 12.72C10.2733 12.4134 10.8867 12 11.42 11.48C11.9533 10.9467 12.3667 10.3334 12.66 9.64002C12.9667 8.93335 13.12 8.18002 13.12 7.38002C13.12 6.58002 12.9667 5.83335 12.66 5.14002C12.3667 4.43335 11.9533 3.82002 11.42 3.30002C10.8867 2.76669 10.2733 2.35335 9.58001 2.06002C8.90001 1.75335 8.16667 1.60002 7.38001 1.60002C6.59334 1.60002 5.85334 1.75335 5.16001 2.06002C4.46667 2.35335 3.85334 2.76669 3.32001 3.30002C2.80001 3.82002 2.38667 4.43335 2.08001 5.14002C1.78667 5.83335 1.64001 6.58002 1.64001 7.38002C1.64001 8.18002 1.78667 8.93335 2.08001 9.64002C2.38667 10.3334 2.80001 10.9467 3.32001 11.48C3.85334 12 4.46667 12.4134 5.16001 12.72C5.85334 13.0134 6.59334 13.16 7.38001 13.16ZM7.46001 11.64C6.67334 11.64 5.97334 11.46 5.36001 11.1C4.74667 10.74 4.26667 10.24 3.92001 9.60002C3.57334 8.94669 3.40001 8.20669 3.40001 7.38002C3.40001 6.55335 3.57334 5.82669 3.92001 5.20002C4.26667 4.56002 4.74667 4.06002 5.36001 3.70002C5.97334 3.34002 6.67334 3.16002 7.46001 3.16002C8.12667 3.16002 8.72001 3.29335 9.24001 3.56002C9.77334 3.81335 10.2067 4.17335 10.54 4.64002C10.8733 5.10669 11.0667 5.64002 11.12 6.24002L9.56001 6.34002C9.48001 5.83335 9.24667 5.42002 8.86001 5.10002C8.47334 4.76669 8.00667 4.60002 7.46001 4.60002C6.98001 4.60002 6.54667 4.72002 6.16001 4.96002C5.78667 5.18669 5.49334 5.51335 5.28001 5.94002C5.06667 6.35335 4.96001 6.83335 4.96001 7.38002C4.96001 7.92669 5.06667 8.41335 5.28001 8.84002C5.49334 9.26669 5.78667 9.60002 6.16001 9.84002C6.54667 10.08 6.98001 10.2 7.46001 10.2C7.83334 10.2 8.17334 10.12 8.48001 9.96002C8.80001 9.78669 9.06001 9.56002 9.26001 9.28002C9.46001 8.98669 9.58667 8.65335 9.64001 8.28002L11.2 8.38002C11.1333 9.00669 10.9267 9.56669 10.58 10.06C10.2467 10.5534 9.80667 10.94 9.26001 11.22C8.72667 11.5 8.12667 11.64 7.46001 11.64ZM21.8625 14.52C21.8625 13.52 22.0158 12.62 22.3225 11.82C22.6425 11.0067 23.1958 10.2334 23.9825 9.50002C24.7825 8.76669 25.8892 8.02669 27.3025 7.28002C27.9558 6.93335 28.4825 6.61335 28.8825 6.32002C29.2825 6.02669 29.5758 5.71335 29.7625 5.38002C29.9492 5.04669 30.0425 4.64002 30.0425 4.16002C30.0425 3.66669 29.9358 3.24002 29.7225 2.88002C29.5092 2.50669 29.1892 2.21335 28.7625 2.00002C28.3492 1.78669 27.8292 1.68002 27.2025 1.68002C26.2025 1.68002 25.4092 1.94002 24.8225 2.46002C24.2492 2.98002 23.8892 3.72002 23.7425 4.68002L21.9425 4.56002C22.1025 3.17335 22.6358 2.06669 23.5425 1.24002C24.4492 0.413352 25.6692 1.93119e-05 27.2025 1.93119e-05C28.1758 1.93119e-05 29.0092 0.173352 29.7025 0.520019C30.3958 0.866686 30.9225 1.35335 31.2825 1.98002C31.6558 2.59335 31.8425 3.30669 31.8425 4.12002C31.8425 4.84002 31.7225 5.46669 31.4825 6.00002C31.2425 6.52002 30.8358 7.00669 30.2625 7.46002C29.7025 7.91335 28.9292 8.40002 27.9425 8.92002C26.6625 9.60002 25.6892 10.2867 25.0225 10.98C24.3692 11.6734 24.0225 12.2934 23.9825 12.84H31.8425V14.52H21.8625ZM39.47 14.84C38.3233 14.84 37.33 14.54 36.49 13.94C35.65 13.34 34.9967 12.4867 34.53 11.38C34.0767 10.2734 33.85 8.96002 33.85 7.44002C33.85 5.92002 34.0767 4.60669 34.53 3.50002C34.9967 2.38002 35.65 1.52002 36.49 0.920019C37.33 0.306686 38.3233 1.93119e-05 39.47 1.93119e-05C40.63 1.93119e-05 41.63 0.306686 42.47 0.920019C43.31 1.52002 43.9567 2.37335 44.41 3.48002C44.8767 4.58669 45.11 5.90669 45.11 7.44002C45.11 8.96002 44.8767 10.2734 44.41 11.38C43.9567 12.4867 43.31 13.34 42.47 13.94C41.63 14.54 40.63 14.84 39.47 14.84ZM39.47 13.16C40.6967 13.16 41.6433 12.6667 42.31 11.68C42.9767 10.68 43.31 9.26669 43.31 7.44002C43.31 6.21335 43.1567 5.17335 42.85 4.32002C42.5567 3.45335 42.1233 2.80002 41.55 2.36002C40.99 1.90669 40.2967 1.68002 39.47 1.68002C38.6567 1.68002 37.9633 1.90669 37.39 2.36002C36.83 2.80002 36.3967 3.45335 36.09 4.32002C35.7967 5.17335 35.65 6.21335 35.65 7.44002C35.65 9.26669 35.9833 10.68 36.65 11.68C37.3167 12.6667 38.2567 13.16 39.47 13.16ZM47.1164 14.52C47.1164 13.52 47.2697 12.62 47.5764 11.82C47.8964 11.0067 48.4497 10.2334 49.2364 9.50002C50.0364 8.76669 51.1431 8.02669 52.5564 7.28002C53.2097 6.93335 53.7364 6.61335 54.1364 6.32002C54.5364 6.02669 54.8297 5.71335 55.0164 5.38002C55.2031 5.04669 55.2964 4.64002 55.2964 4.16002C55.2964 3.66669 55.1897 3.24002 54.9764 2.88002C54.7631 2.50669 54.4431 2.21335 54.0164 2.00002C53.6031 1.78669 53.0831 1.68002 52.4564 1.68002C51.4564 1.68002 50.6631 1.94002 50.0764 2.46002C49.5031 2.98002 49.1431 3.72002 48.9964 4.68002L47.1964 4.56002C47.3564 3.17335 47.8897 2.06669 48.7964 1.24002C49.7031 0.413352 50.9231 1.93119e-05 52.4564 1.93119e-05C53.4297 1.93119e-05 54.2631 0.173352 54.9564 0.520019C55.6497 0.866686 56.1764 1.35335 56.5364 1.98002C56.9097 2.59335 57.0964 3.30669 57.0964 4.12002C57.0964 4.84002 56.9764 5.46669 56.7364 6.00002C56.4964 6.52002 56.0897 7.00669 55.5164 7.46002C54.9564 7.91335 54.1831 8.40002 53.1964 8.92002C51.9164 9.60002 50.9431 10.2867 50.2764 10.98C49.6231 11.6734 49.2764 12.2934 49.2364 12.84H57.0964V14.52H47.1164ZM64.5392 14.84C63.5392 14.84 62.6726 14.6734 61.9392 14.34C61.2192 14.0067 60.6459 13.54 60.2192 12.94C59.8059 12.34 59.5659 11.6467 59.4992 10.86L61.2992 10.74C61.4059 11.54 61.7459 12.1467 62.3192 12.56C62.9059 12.96 63.6459 13.16 64.5392 13.16C65.5392 13.16 66.3326 12.88 66.9192 12.32C67.5059 11.7467 67.7992 10.96 67.7992 9.96002C67.7992 9.29335 67.6659 8.72002 67.3992 8.24002C67.1459 7.74669 66.7726 7.36669 66.2792 7.10002C65.7859 6.83335 65.1926 6.70002 64.4992 6.70002C63.8459 6.70002 63.2526 6.84002 62.7192 7.12002C62.1859 7.40002 61.8059 7.79335 61.5792 8.30002H59.7392L60.6792 0.320019H68.6392V2.00002H62.2592L61.6192 7.24002L61.2992 6.92002C61.5126 6.50669 61.7926 6.16669 62.1392 5.90002C62.4992 5.62002 62.9059 5.41335 63.3592 5.28002C63.8259 5.13335 64.3126 5.06002 64.8192 5.06002C65.7659 5.06002 66.5992 5.27335 67.3192 5.70002C68.0392 6.11335 68.5992 6.69335 68.9992 7.44002C69.3992 8.17335 69.5992 9.01335 69.5992 9.96002C69.5992 10.9067 69.3859 11.7534 68.9592 12.5C68.5326 13.2334 67.9392 13.8067 67.1792 14.22C66.4192 14.6334 65.5392 14.84 64.5392 14.84Z" fill="white"/>
</svg>
